<svg xmlns="http://www.w3.org/2000/svg" class="ionicon" viewBox="0 0 512 512">
    <path d="M256,32C132.29,32,32,132.29,32,256c0,99.94,64.7,184.6,154.29,214.37 11.29,2.09,15.45-4.9,15.45-10.87 0-5.38-.21-23.1-.32-41.9-62.84,13.67-76.1-30.32-76.1-30.32-10.27-26.07-25.12-33.02-25.12-33.02-20.53-14.03,1.55-13.75,1.55-13.75 22.72,1.6,34.68,23.3,34.68,23.3 20.17,34.59,52.94,24.61,65.86,18.82 2.06-14.61,7.89-24.61,14.37-30.28-50.2-5.72-102.94-25.1-102.94-111.77 0-24.7,8.84-44.83,23.29-60.62-2.34-5.72-10.09-28.77,2.21-59.95 0,0,18.94-6.07,62.11,23.18a213.38,213.38,0,0,1,56.65-7.62 213.4,213.4,0,0,1,56.7,7.62c43.15-29.25,62.05-23.18,62.05-23.18 12.33,31.18,4.58,54.23,2.24,59.95 14.46,15.79,23.25,35.92,23.25,60.62 0,86.88-52.79,106-103.07,111.61 8.12,7,15.32,20.71,15.32,41.73 0,30.15-.28,54.46-.28,61.88 0,6,4.08,13,15.51,10.8C415.2,440.55,480,355.9,480,256 480,132.29,379.71,32,256,32Z"/>
</svg>
