<?xml version="1.0" encoding="UTF-8" standalone="no"?>
<!DOCTYPE svg PUBLIC "-//W3C//DTD SVG 20010904//EN"
              "http://www.w3.org/TR/2001/REC-SVG-20010904/DTD/svg10.dtd">

<svg xmlns="http://www.w3.org/2000/svg"
     viewBox="0 -1 817 459">        <!-- 817 × 459 tight fit -->

  <defs>
    <mask id="letters-mask" maskUnits="userSpaceOnUse">
      <!-- white = visible everywhere -->
      <rect x="0" y="0" width="1024" height="1024" fill="white"/>

      <!-- “P” (formerly id="Imported Path #1") – black = cut-out -->
      <path d="M 397.62,164.50
               C 408.03,164.07 418.38,164.57 428.63,166.00
                 436.44,170.28 440.44,176.95 440.63,186.00
                 440.23,199.38 433.57,207.72 420.62,211.00
                 412.96,211.50 405.30,211.67 397.62,211.50
                 397.62,195.83 397.62,180.17 397.62,164.50 Z"
            fill="black"/>

      <!-- “D” (formerly id="Imported Path") -->
      <path d="M 602.50,210.17
               C 606.65,175.55 601.32,142.55 586.50,111.17
                 580.54,99.41 573.21,88.58 564.50,78.67
                 616.18,73.45 659.68,89.62 695.00,127.17
                 721.09,162.50 731.75,202.17 727.00,246.17
                 719.40,310.76 684.90,353.59 623.50,374.67
                 611.04,377.97 598.37,379.97 585.50,380.67
                 532.50,381.17 479.50,381.34 426.50,381.17
                 426.50,372.50 426.50,363.84 426.50,355.17
                 484.14,357.26 531.64,336.59 569.00,293.17
                 587.68,268.64 598.85,240.98 602.50,210.17 Z"
            fill="black"/>
    </mask>
  </defs>

  <path id="Outline"
        d="M 610.00,-0.82
           C 683.38,6.26 740.21,40.26 780.50,101.18
             800.78,134.96 811.45,171.63 812.50,211.18
             817.02,282.64 794.85,344.14 746.00,395.68
             715.59,424.56 679.93,444.06 639.00,454.18
             637.14,454.50 634.23,454.86 632.50,455.23
             624.59,456.86 619.41,456.32 611.36,456.59
             526.70,457.09 442.67,457.35 358.00,457.18
             358.00,347.85 358.00,238.51 358.00,129.18
             383.18,129.29 408.18,129.29 433.00,129.18
             462.26,136.78 477.59,155.78 479.00,186.18
             475.73,221.12 457.50,241.34 422.77,246.41
             414.23,246.41 405.86,246.59 396.41,246.23
             396.41,262.56 396.00,277.85 396.00,294.18
             412.72,294.51 428.05,294.18 442.00,293.18
             492.95,286.07 522.78,257.07 531.50,206.18
             535.35,181.21 533.01,156.87 524.50,133.18
             508.65,100.17 482.48,81.83 446.00,78.18
             399.38,77.18 351.38,76.85 302.00,77.18
             302.00,203.85 302.00,330.51 302.00,457.18
             274.00,457.18 246.00,457.18 218.00,457.18
             218.17,387.85 218.00,318.51 217.50,249.18
             173.41,248.18 129.24,247.85 85.00,248.18
             85.00,317.85 85.00,387.51 85.00,457.18
             56.67,457.18 28.33,457.18 0.00,457.18
             0.00,304.85 0.00,152.51 0.00,0.18
             28.33,0.18 56.67,0.18 85.00,0.18
             84.83,56.18 85.00,112.18 85.50,168.18
             107.26,168.84 129.09,169.18 151.00,169.18
             173.04,169.17 195.04,168.84 217.00,168.18
             218.00,112.18 218.33,56.18 218.00,0.18
             348.83,0.51 479.50,0.18 610.00,-0.82 Z"
        fill="#fa322f"
        stroke="none"
        mask="url(#letters-mask)"/>
</svg>
